<svg xmlns="http://www.w3.org/2000/svg" viewBox="0 0 64 64">
  <defs>
    <linearGradient id="g" x1="0" x2="1" y1="0" y2="1">
      <stop offset="0%" stop-color="#13a4ec"/>
      <stop offset="100%" stop-color="#1195d6"/>
    </linearGradient>
  </defs>
  <rect width="64" height="64" rx="12" fill="url(#g)"/>
  <!-- Icône centrée via un sous-SVG avec viewBox natif et preserveAspectRatio -->
  <svg x="12" y="12" width="40" height="40" viewBox="0 -960 960 960" preserveAspectRatio="xMidYMid meet">
    <g fill="#fff" transform="translate(960,0) scale(-1,1)">
      <path d="M248-300q53.57 0 104.28 12.5Q403-275 452-250v-427q-45-30-97.62-46.5Q301.76-740 248-740q-38 0-74.5 9.5T100-707v434q31-14 70.5-20.5T248-300Zm264 50q50-25 98-37.5T712-300q38 0 78.5 6t69.5 16v-429q-34-17-71.82-25-37.82-8-76.18-8-54 0-104.5 16.5T512-677v427Zm-30 90q-51-38-111-58.5T248-239q-36.54 0-71.77 9T106-208q-23.1 11-44.55-3Q40-225 40-251v-463q0-15 7-27.5T68-761q42-20 87.39-29.5 45.4-9.5 92.61-9.5 63 0 122.5 17T482-731q51-35 109.5-52T712-800q46.87 0 91.93 9.5Q849-781 891-761q14 7 21.5 19.5T920-714v463q0 27.89-22.5 42.45Q875-194 853-208q-34-14-69.23-22.5Q748.54-239 712-239q-63 0-121 21t-109 58ZM276-489Z"/>
    </g>
  </svg>
</svg>
