<svg xmlns="http://www.w3.org/2000/svg" width="300" height="450" viewBox="0 0 300 450"><rect width="100%" height="100%" fill="#DDDDDD"/><path fill="#999999" d="M81.355 209.455h5.09v31.09h-2.97q-.68 0-1.15-.23-.46-.22-.89-.76l-16.23-20.73q.13 1.42.13 2.63v19.09h-5.1v-31.09h3.03q.37 0 .64.03.27.04.47.13.21.1.4.28t.43.49l16.3 20.81q-.07-.76-.11-1.49t-.04-1.35zm20.94 8.69q2.45 0 4.46.79 2.01.8 3.44 2.26t2.2 3.57q.78 2.11.78 4.71 0 2.62-.78 4.73-.77 2.1-2.2 3.59-1.43 1.48-3.44 2.28-2.01.79-4.46.79-2.48 0-4.5-.79-2.02-.8-3.45-2.28-1.43-1.49-2.21-3.59-.79-2.11-.79-4.73 0-2.6.79-4.71.78-2.11 2.21-3.57t3.45-2.26q2.02-.79 4.5-.79m0 18.64q2.75 0 4.07-1.85t1.32-5.42-1.32-5.44-4.07-1.87q-2.8 0-4.14 1.88-1.35 1.88-1.35 5.43t1.35 5.41q1.34 1.86 4.14 1.86m47.58-3.57q.47 0 .84.36l2.27 2.48q-1.89 2.34-4.65 3.59-2.76 1.24-6.63 1.24-3.46 0-6.23-1.18-2.76-1.18-4.72-3.29-1.95-2.11-3-5.03-1.04-2.92-1.04-6.38 0-3.51 1.12-6.42 1.12-2.92 3.15-5.02 2.03-2.11 4.85-3.28 2.81-1.17 6.23-1.17 3.4 0 6.03 1.11 2.64 1.12 4.49 2.93l-1.94 2.69q-.17.25-.44.45-.27.19-.74.19-.32 0-.67-.18-.34-.18-.75-.45t-.95-.59q-.53-.33-1.24-.6-.71-.26-1.65-.45-.93-.18-2.16-.18-2.08 0-3.82.74-1.73.74-2.97 2.15-1.25 1.41-1.94 3.44t-.69 4.64q0 2.62.75 4.66.74 2.04 2.01 3.44 1.26 1.4 2.98 2.14t3.7.74q1.18 0 2.14-.13t1.76-.41q.81-.28 1.53-.72t1.43-1.08q.22-.2.45-.31.24-.12.5-.12m16.01-15.07q2.46 0 4.47.79 2.01.8 3.44 2.26t2.2 3.57.77 4.71q0 2.62-.77 4.73-.77 2.1-2.2 3.59-1.43 1.48-3.44 2.28-2.01.79-4.47.79-2.47 0-4.49-.79-2.02-.8-3.45-2.28-1.43-1.49-2.21-3.59-.79-2.11-.79-4.73 0-2.6.79-4.71.78-2.11 2.21-3.57t3.45-2.26q2.02-.79 4.49-.79m0 18.64q2.76 0 4.08-1.85t1.32-5.42-1.32-5.44-4.08-1.87q-2.79 0-4.13 1.88-1.35 1.88-1.35 5.43t1.35 5.41q1.34 1.86 4.13 1.86m30.64-18.3h4.19l-8.75 22.06h-4.81l-8.75-22.06h4.38q.61 0 1 .28.4.28.53.71l4.26 11.78q.34 1.03.6 2.02t.45 1.98q.22-.99.47-1.98.26-.99.63-2.02l4.34-11.78q.15-.43.54-.71.38-.28.92-.28m11.2 8.49h10.02q0-1.03-.29-1.94-.29-.92-.87-1.6-.58-.69-1.47-1.09t-2.08-.4q-2.3 0-3.62 1.31-1.32 1.32-1.69 3.72m13.55 3.21h-13.65q.12 1.7.6 2.93.47 1.24 1.24 2.04.78.81 1.84 1.21 1.07.4 2.36.4t2.22-.3q.94-.31 1.64-.67.7-.37 1.22-.67.53-.3 1.02-.3.67 0 .99.5l1.53 1.93q-.88 1.03-1.98 1.73t-2.29 1.12-2.43.59q-1.23.17-2.4.17-2.3 0-4.27-.76-1.98-.76-3.44-2.26-1.47-1.49-2.3-3.7-.84-2.2-.84-5.1 0-2.26.73-4.25t2.09-3.46q1.37-1.47 3.34-2.33 1.96-.86 4.44-.86 2.08 0 3.84.66 1.77.67 3.04 1.95 1.26 1.28 1.98 3.14.73 1.86.73 4.24 0 1.21-.26 1.63t-.99.42m9.91-10.37.32 2.5q1.03-1.98 2.45-3.11t3.36-1.13q1.52 0 2.45.67l-.35 3.98q-.1.38-.31.54-.2.17-.55.17-.32 0-.95-.11-.64-.11-1.24-.11-.88 0-1.57.26t-1.23.74q-.55.48-.97 1.17t-.79 1.57v13.59h-5.31v-22.06h3.12q.82 0 1.14.29t.43 1.04"/></svg>